<mxfile host="app.diagrams.net" modified="2023-10-01T17:28:10.964Z" agent="Mozilla/5.0 (Windows NT 10.0; Win64; x64) AppleWebKit/537.36 (KHTML, like Gecko) Chrome/116.0.0.0 Safari/537.36 OPR/102.0.0.0" etag="UI7olb3X6amKJ6v9WcqA" version="22.0.0" type="github">
  <diagram id="C5RBs43oDa-KdzZeNtuy" name="Page-1">
    <mxGraphModel dx="1685" dy="966" grid="1" gridSize="10" guides="1" tooltips="1" connect="1" arrows="1" fold="1" page="1" pageScale="1" pageWidth="827" pageHeight="1169" math="0" shadow="0">
      <root>
        <mxCell id="WIyWlLk6GJQsqaUBKTNV-0" />
        <mxCell id="WIyWlLk6GJQsqaUBKTNV-1" parent="WIyWlLk6GJQsqaUBKTNV-0" />
        <mxCell id="myWWar3E-hMSdHv3xqH_-29" style="edgeStyle=orthogonalEdgeStyle;rounded=0;orthogonalLoop=1;jettySize=auto;html=1;" parent="WIyWlLk6GJQsqaUBKTNV-1" source="myWWar3E-hMSdHv3xqH_-0" target="myWWar3E-hMSdHv3xqH_-27" edge="1">
          <mxGeometry relative="1" as="geometry" />
        </mxCell>
        <mxCell id="myWWar3E-hMSdHv3xqH_-0" value="INITIALIZATION" style="shape=process;whiteSpace=wrap;html=1;backgroundOutline=1;" parent="WIyWlLk6GJQsqaUBKTNV-1" vertex="1">
          <mxGeometry x="40" y="70" width="120" height="60" as="geometry" />
        </mxCell>
        <mxCell id="myWWar3E-hMSdHv3xqH_-11" style="edgeStyle=orthogonalEdgeStyle;rounded=0;orthogonalLoop=1;jettySize=auto;html=1;exitX=0.5;exitY=1;exitDx=0;exitDy=0;entryX=0.5;entryY=0;entryDx=0;entryDy=0;" parent="WIyWlLk6GJQsqaUBKTNV-1" source="myWWar3E-hMSdHv3xqH_-2" target="myWWar3E-hMSdHv3xqH_-3" edge="1">
          <mxGeometry relative="1" as="geometry" />
        </mxCell>
        <mxCell id="myWWar3E-hMSdHv3xqH_-2" value="LIBRARY AND VARIABLE TO GNSS&amp;nbsp;" style="rounded=0;whiteSpace=wrap;html=1;" parent="WIyWlLk6GJQsqaUBKTNV-1" vertex="1">
          <mxGeometry x="220" y="120" width="124" height="40" as="geometry" />
        </mxCell>
        <mxCell id="myWWar3E-hMSdHv3xqH_-12" style="edgeStyle=orthogonalEdgeStyle;rounded=0;orthogonalLoop=1;jettySize=auto;html=1;exitX=0.5;exitY=1;exitDx=0;exitDy=0;entryX=0.5;entryY=0;entryDx=0;entryDy=0;" parent="WIyWlLk6GJQsqaUBKTNV-1" source="myWWar3E-hMSdHv3xqH_-3" target="myWWar3E-hMSdHv3xqH_-4" edge="1">
          <mxGeometry relative="1" as="geometry" />
        </mxCell>
        <mxCell id="myWWar3E-hMSdHv3xqH_-3" value="LIBRARY AND VARIABLE TO LORA" style="rounded=0;whiteSpace=wrap;html=1;" parent="WIyWlLk6GJQsqaUBKTNV-1" vertex="1">
          <mxGeometry x="220" y="180" width="124" height="40" as="geometry" />
        </mxCell>
        <mxCell id="myWWar3E-hMSdHv3xqH_-13" style="edgeStyle=orthogonalEdgeStyle;rounded=0;orthogonalLoop=1;jettySize=auto;html=1;exitX=0.5;exitY=1;exitDx=0;exitDy=0;entryX=0.5;entryY=0;entryDx=0;entryDy=0;" parent="WIyWlLk6GJQsqaUBKTNV-1" source="myWWar3E-hMSdHv3xqH_-4" target="myWWar3E-hMSdHv3xqH_-5" edge="1">
          <mxGeometry relative="1" as="geometry" />
        </mxCell>
        <mxCell id="myWWar3E-hMSdHv3xqH_-4" value="LIBRARY AND VARIABLE TO SHT21" style="rounded=0;whiteSpace=wrap;html=1;" parent="WIyWlLk6GJQsqaUBKTNV-1" vertex="1">
          <mxGeometry x="220" y="240" width="124" height="40" as="geometry" />
        </mxCell>
        <mxCell id="myWWar3E-hMSdHv3xqH_-14" style="edgeStyle=orthogonalEdgeStyle;rounded=0;orthogonalLoop=1;jettySize=auto;html=1;exitX=0.5;exitY=1;exitDx=0;exitDy=0;entryX=0.5;entryY=0;entryDx=0;entryDy=0;" parent="WIyWlLk6GJQsqaUBKTNV-1" source="myWWar3E-hMSdHv3xqH_-5" target="myWWar3E-hMSdHv3xqH_-6" edge="1">
          <mxGeometry relative="1" as="geometry" />
        </mxCell>
        <mxCell id="myWWar3E-hMSdHv3xqH_-5" value="LIBRARY AND VARIABLE TO AXL245" style="rounded=0;whiteSpace=wrap;html=1;" parent="WIyWlLk6GJQsqaUBKTNV-1" vertex="1">
          <mxGeometry x="220" y="300" width="124" height="40" as="geometry" />
        </mxCell>
        <mxCell id="myWWar3E-hMSdHv3xqH_-15" style="edgeStyle=orthogonalEdgeStyle;rounded=0;orthogonalLoop=1;jettySize=auto;html=1;exitX=0.5;exitY=1;exitDx=0;exitDy=0;entryX=0.5;entryY=0;entryDx=0;entryDy=0;" parent="WIyWlLk6GJQsqaUBKTNV-1" source="myWWar3E-hMSdHv3xqH_-6" target="myWWar3E-hMSdHv3xqH_-7" edge="1">
          <mxGeometry relative="1" as="geometry" />
        </mxCell>
        <mxCell id="myWWar3E-hMSdHv3xqH_-6" value="LIBRARY AND VARIABLE TO BATTERY STATUS" style="rounded=0;whiteSpace=wrap;html=1;" parent="WIyWlLk6GJQsqaUBKTNV-1" vertex="1">
          <mxGeometry x="220" y="360" width="124" height="40" as="geometry" />
        </mxCell>
        <mxCell id="myWWar3E-hMSdHv3xqH_-16" style="edgeStyle=orthogonalEdgeStyle;rounded=0;orthogonalLoop=1;jettySize=auto;html=1;exitX=0.5;exitY=1;exitDx=0;exitDy=0;entryX=0.5;entryY=0;entryDx=0;entryDy=0;" parent="WIyWlLk6GJQsqaUBKTNV-1" source="myWWar3E-hMSdHv3xqH_-7" target="myWWar3E-hMSdHv3xqH_-8" edge="1">
          <mxGeometry relative="1" as="geometry" />
        </mxCell>
        <mxCell id="myWWar3E-hMSdHv3xqH_-7" value="DEFINITIONS TO DEEP SLEEP MODE" style="rounded=0;whiteSpace=wrap;html=1;" parent="WIyWlLk6GJQsqaUBKTNV-1" vertex="1">
          <mxGeometry x="220" y="420" width="124" height="40" as="geometry" />
        </mxCell>
        <mxCell id="myWWar3E-hMSdHv3xqH_-25" style="edgeStyle=orthogonalEdgeStyle;rounded=0;orthogonalLoop=1;jettySize=auto;html=1;" parent="WIyWlLk6GJQsqaUBKTNV-1" source="myWWar3E-hMSdHv3xqH_-8" target="myWWar3E-hMSdHv3xqH_-24" edge="1">
          <mxGeometry relative="1" as="geometry" />
        </mxCell>
        <mxCell id="myWWar3E-hMSdHv3xqH_-8" value="SYSTEM VARIABLES&amp;nbsp;" style="rounded=0;whiteSpace=wrap;html=1;" parent="WIyWlLk6GJQsqaUBKTNV-1" vertex="1">
          <mxGeometry x="220" y="480" width="124" height="40" as="geometry" />
        </mxCell>
        <mxCell id="myWWar3E-hMSdHv3xqH_-23" style="edgeStyle=orthogonalEdgeStyle;rounded=0;orthogonalLoop=1;jettySize=auto;html=1;" parent="WIyWlLk6GJQsqaUBKTNV-1" source="myWWar3E-hMSdHv3xqH_-18" target="myWWar3E-hMSdHv3xqH_-2" edge="1">
          <mxGeometry relative="1" as="geometry" />
        </mxCell>
        <mxCell id="myWWar3E-hMSdHv3xqH_-18" value="ESP INITY" style="rounded=1;whiteSpace=wrap;html=1;" parent="WIyWlLk6GJQsqaUBKTNV-1" vertex="1">
          <mxGeometry x="246.5" y="70" width="71" height="30" as="geometry" />
        </mxCell>
        <mxCell id="myWWar3E-hMSdHv3xqH_-24" value="FINISH" style="rounded=1;whiteSpace=wrap;html=1;" parent="WIyWlLk6GJQsqaUBKTNV-1" vertex="1">
          <mxGeometry x="239" y="540" width="86" height="40" as="geometry" />
        </mxCell>
        <mxCell id="myWWar3E-hMSdHv3xqH_-26" value="INITIALIZATION" style="text;html=1;align=center;verticalAlign=middle;resizable=0;points=[];autosize=1;strokeColor=none;fillColor=none;" parent="WIyWlLk6GJQsqaUBKTNV-1" vertex="1">
          <mxGeometry x="220" y="40" width="110" height="30" as="geometry" />
        </mxCell>
        <mxCell id="myWWar3E-hMSdHv3xqH_-30" style="edgeStyle=orthogonalEdgeStyle;rounded=0;orthogonalLoop=1;jettySize=auto;html=1;" parent="WIyWlLk6GJQsqaUBKTNV-1" source="myWWar3E-hMSdHv3xqH_-27" target="myWWar3E-hMSdHv3xqH_-28" edge="1">
          <mxGeometry relative="1" as="geometry" />
        </mxCell>
        <mxCell id="myWWar3E-hMSdHv3xqH_-27" value="SETUP" style="shape=process;whiteSpace=wrap;html=1;backgroundOutline=1;" parent="WIyWlLk6GJQsqaUBKTNV-1" vertex="1">
          <mxGeometry x="40" y="150" width="120" height="60" as="geometry" />
        </mxCell>
        <mxCell id="myWWar3E-hMSdHv3xqH_-28" value="LOOP" style="shape=process;whiteSpace=wrap;html=1;backgroundOutline=1;" parent="WIyWlLk6GJQsqaUBKTNV-1" vertex="1">
          <mxGeometry x="40" y="230" width="120" height="60" as="geometry" />
        </mxCell>
        <mxCell id="myWWar3E-hMSdHv3xqH_-31" value="PROGRAM" style="text;html=1;align=center;verticalAlign=middle;resizable=0;points=[];autosize=1;strokeColor=none;fillColor=none;" parent="WIyWlLk6GJQsqaUBKTNV-1" vertex="1">
          <mxGeometry x="55" y="40" width="90" height="30" as="geometry" />
        </mxCell>
        <mxCell id="myWWar3E-hMSdHv3xqH_-39" style="edgeStyle=orthogonalEdgeStyle;rounded=0;orthogonalLoop=1;jettySize=auto;html=1;exitX=0.5;exitY=1;exitDx=0;exitDy=0;" parent="WIyWlLk6GJQsqaUBKTNV-1" source="myWWar3E-hMSdHv3xqH_-32" target="myWWar3E-hMSdHv3xqH_-33" edge="1">
          <mxGeometry relative="1" as="geometry" />
        </mxCell>
        <mxCell id="myWWar3E-hMSdHv3xqH_-32" value="INITY VOID SETUP" style="rounded=1;whiteSpace=wrap;html=1;" parent="WIyWlLk6GJQsqaUBKTNV-1" vertex="1">
          <mxGeometry x="434" y="70" width="71" height="30" as="geometry" />
        </mxCell>
        <mxCell id="myWWar3E-hMSdHv3xqH_-40" style="edgeStyle=orthogonalEdgeStyle;rounded=0;orthogonalLoop=1;jettySize=auto;html=1;exitX=0.5;exitY=1;exitDx=0;exitDy=0;entryX=0.5;entryY=0;entryDx=0;entryDy=0;" parent="WIyWlLk6GJQsqaUBKTNV-1" source="myWWar3E-hMSdHv3xqH_-33" target="myWWar3E-hMSdHv3xqH_-34" edge="1">
          <mxGeometry relative="1" as="geometry" />
        </mxCell>
        <mxCell id="myWWar3E-hMSdHv3xqH_-33" value="PIN DEFINATIONS" style="rounded=0;whiteSpace=wrap;html=1;" parent="WIyWlLk6GJQsqaUBKTNV-1" vertex="1">
          <mxGeometry x="407.5" y="120" width="124" height="40" as="geometry" />
        </mxCell>
        <mxCell id="KdF7l_LlImrHwwRQQBVm-32" style="edgeStyle=orthogonalEdgeStyle;rounded=0;orthogonalLoop=1;jettySize=auto;html=1;" edge="1" parent="WIyWlLk6GJQsqaUBKTNV-1" source="myWWar3E-hMSdHv3xqH_-34" target="KdF7l_LlImrHwwRQQBVm-27">
          <mxGeometry relative="1" as="geometry" />
        </mxCell>
        <mxCell id="myWWar3E-hMSdHv3xqH_-34" value="PIN SENSOR STATUS DEFINATIONS" style="rounded=0;whiteSpace=wrap;html=1;" parent="WIyWlLk6GJQsqaUBKTNV-1" vertex="1">
          <mxGeometry x="403.25" y="180" width="132.5" height="40" as="geometry" />
        </mxCell>
        <mxCell id="KdF7l_LlImrHwwRQQBVm-36" style="edgeStyle=orthogonalEdgeStyle;rounded=0;orthogonalLoop=1;jettySize=auto;html=1;" edge="1" parent="WIyWlLk6GJQsqaUBKTNV-1" source="myWWar3E-hMSdHv3xqH_-35" target="KdF7l_LlImrHwwRQQBVm-35">
          <mxGeometry relative="1" as="geometry" />
        </mxCell>
        <mxCell id="myWWar3E-hMSdHv3xqH_-35" value="GNSS&amp;nbsp;IN HOT MODE" style="rounded=0;whiteSpace=wrap;html=1;" parent="WIyWlLk6GJQsqaUBKTNV-1" vertex="1">
          <mxGeometry x="407.5" y="360" width="124" height="40" as="geometry" />
        </mxCell>
        <mxCell id="KdF7l_LlImrHwwRQQBVm-40" style="edgeStyle=orthogonalEdgeStyle;rounded=0;orthogonalLoop=1;jettySize=auto;html=1;entryX=0.5;entryY=0;entryDx=0;entryDy=0;" edge="1" parent="WIyWlLk6GJQsqaUBKTNV-1" source="myWWar3E-hMSdHv3xqH_-37" target="KdF7l_LlImrHwwRQQBVm-39">
          <mxGeometry relative="1" as="geometry" />
        </mxCell>
        <mxCell id="myWWar3E-hMSdHv3xqH_-37" value="ARRIVE ADDRESS LORA MODULE" style="rounded=0;whiteSpace=wrap;html=1;" parent="WIyWlLk6GJQsqaUBKTNV-1" vertex="1">
          <mxGeometry x="407.5" y="480" width="124" height="40" as="geometry" />
        </mxCell>
        <mxCell id="myWWar3E-hMSdHv3xqH_-38" value="FINSH VOID SETUP" style="rounded=1;whiteSpace=wrap;html=1;" parent="WIyWlLk6GJQsqaUBKTNV-1" vertex="1">
          <mxGeometry x="434" y="600" width="71" height="30" as="geometry" />
        </mxCell>
        <mxCell id="myWWar3E-hMSdHv3xqH_-45" value="SETUP" style="text;html=1;align=center;verticalAlign=middle;resizable=0;points=[];autosize=1;strokeColor=none;fillColor=none;" parent="WIyWlLk6GJQsqaUBKTNV-1" vertex="1">
          <mxGeometry x="410" y="40" width="60" height="30" as="geometry" />
        </mxCell>
        <mxCell id="KdF7l_LlImrHwwRQQBVm-0" value="INITY VOID LOOP" style="rounded=1;whiteSpace=wrap;html=1;" vertex="1" parent="WIyWlLk6GJQsqaUBKTNV-1">
          <mxGeometry x="348.5" y="740" width="71" height="30" as="geometry" />
        </mxCell>
        <mxCell id="KdF7l_LlImrHwwRQQBVm-1" value="&lt;h1&gt;DEVICE&amp;nbsp;&lt;/h1&gt;&lt;p&gt;THIS IS ALL PARTS OF THE DEVICE.&lt;/p&gt;" style="text;html=1;strokeColor=none;fillColor=none;spacing=5;spacingTop=-20;whiteSpace=wrap;overflow=hidden;rounded=0;" vertex="1" parent="WIyWlLk6GJQsqaUBKTNV-1">
          <mxGeometry x="610" y="60" width="190" height="120" as="geometry" />
        </mxCell>
        <mxCell id="KdF7l_LlImrHwwRQQBVm-2" value="DEEP_SLEEP_WAKEUP" style="rounded=0;whiteSpace=wrap;html=1;" vertex="1" parent="WIyWlLk6GJQsqaUBKTNV-1">
          <mxGeometry x="309" y="785" width="150" height="40" as="geometry" />
        </mxCell>
        <mxCell id="KdF7l_LlImrHwwRQQBVm-7" style="edgeStyle=orthogonalEdgeStyle;rounded=0;orthogonalLoop=1;jettySize=auto;html=1;" edge="1" parent="WIyWlLk6GJQsqaUBKTNV-1" source="KdF7l_LlImrHwwRQQBVm-3">
          <mxGeometry relative="1" as="geometry">
            <mxPoint x="490" y="950" as="targetPoint" />
          </mxGeometry>
        </mxCell>
        <mxCell id="KdF7l_LlImrHwwRQQBVm-18" style="edgeStyle=orthogonalEdgeStyle;rounded=0;orthogonalLoop=1;jettySize=auto;html=1;entryX=0.5;entryY=0;entryDx=0;entryDy=0;" edge="1" parent="WIyWlLk6GJQsqaUBKTNV-1" source="KdF7l_LlImrHwwRQQBVm-3" target="KdF7l_LlImrHwwRQQBVm-12">
          <mxGeometry relative="1" as="geometry" />
        </mxCell>
        <mxCell id="KdF7l_LlImrHwwRQQBVm-3" value="LAT AND LON EXIST ?" style="rhombus;whiteSpace=wrap;html=1;shadow=0;fontFamily=Helvetica;fontSize=12;align=center;strokeWidth=1;spacing=6;spacingTop=-4;" vertex="1" parent="WIyWlLk6GJQsqaUBKTNV-1">
          <mxGeometry x="322" y="905" width="124" height="90" as="geometry" />
        </mxCell>
        <mxCell id="KdF7l_LlImrHwwRQQBVm-9" style="edgeStyle=orthogonalEdgeStyle;rounded=0;orthogonalLoop=1;jettySize=auto;html=1;" edge="1" parent="WIyWlLk6GJQsqaUBKTNV-1" source="KdF7l_LlImrHwwRQQBVm-5" target="KdF7l_LlImrHwwRQQBVm-3">
          <mxGeometry relative="1" as="geometry" />
        </mxCell>
        <mxCell id="KdF7l_LlImrHwwRQQBVm-5" value="WAIT GNSS INFORMATIONS" style="rounded=0;whiteSpace=wrap;html=1;" vertex="1" parent="WIyWlLk6GJQsqaUBKTNV-1">
          <mxGeometry x="309" y="845" width="150" height="40" as="geometry" />
        </mxCell>
        <mxCell id="KdF7l_LlImrHwwRQQBVm-11" style="edgeStyle=orthogonalEdgeStyle;rounded=0;orthogonalLoop=1;jettySize=auto;html=1;exitX=0.5;exitY=0;exitDx=0;exitDy=0;entryX=1;entryY=0.5;entryDx=0;entryDy=0;" edge="1" parent="WIyWlLk6GJQsqaUBKTNV-1" source="KdF7l_LlImrHwwRQQBVm-8" target="KdF7l_LlImrHwwRQQBVm-5">
          <mxGeometry relative="1" as="geometry" />
        </mxCell>
        <mxCell id="KdF7l_LlImrHwwRQQBVm-15" style="edgeStyle=orthogonalEdgeStyle;rounded=0;orthogonalLoop=1;jettySize=auto;html=1;" edge="1" parent="WIyWlLk6GJQsqaUBKTNV-1" source="KdF7l_LlImrHwwRQQBVm-8">
          <mxGeometry relative="1" as="geometry">
            <mxPoint x="560" y="1055" as="targetPoint" />
          </mxGeometry>
        </mxCell>
        <mxCell id="KdF7l_LlImrHwwRQQBVm-8" value="TIME WAITING SMALLER THAN TIME DEFINED?" style="rhombus;whiteSpace=wrap;html=1;shadow=0;fontFamily=Helvetica;fontSize=12;align=center;strokeWidth=1;spacing=6;spacingTop=-4;" vertex="1" parent="WIyWlLk6GJQsqaUBKTNV-1">
          <mxGeometry x="490" y="900" width="140" height="100" as="geometry" />
        </mxCell>
        <mxCell id="KdF7l_LlImrHwwRQQBVm-20" style="edgeStyle=orthogonalEdgeStyle;rounded=0;orthogonalLoop=1;jettySize=auto;html=1;" edge="1" parent="WIyWlLk6GJQsqaUBKTNV-1" source="KdF7l_LlImrHwwRQQBVm-12" target="KdF7l_LlImrHwwRQQBVm-19">
          <mxGeometry relative="1" as="geometry" />
        </mxCell>
        <mxCell id="KdF7l_LlImrHwwRQQBVm-12" value="GNSS IN STANDBY" style="rounded=0;whiteSpace=wrap;html=1;" vertex="1" parent="WIyWlLk6GJQsqaUBKTNV-1">
          <mxGeometry x="309" y="1025" width="150" height="40" as="geometry" />
        </mxCell>
        <mxCell id="KdF7l_LlImrHwwRQQBVm-13" value="&lt;font color=&quot;#00ff00&quot;&gt;YES&lt;/font&gt;" style="text;html=1;strokeColor=none;fillColor=none;align=center;verticalAlign=middle;whiteSpace=wrap;rounded=0;" vertex="1" parent="WIyWlLk6GJQsqaUBKTNV-1">
          <mxGeometry x="377.5" y="995" width="60" height="30" as="geometry" />
        </mxCell>
        <mxCell id="KdF7l_LlImrHwwRQQBVm-14" value="&lt;font color=&quot;#00ff00&quot;&gt;YES&lt;/font&gt;" style="text;html=1;strokeColor=none;fillColor=none;align=center;verticalAlign=middle;whiteSpace=wrap;rounded=0;" vertex="1" parent="WIyWlLk6GJQsqaUBKTNV-1">
          <mxGeometry x="560" y="1015" width="60" height="30" as="geometry" />
        </mxCell>
        <mxCell id="KdF7l_LlImrHwwRQQBVm-16" value="&lt;font color=&quot;#ff0000&quot;&gt;NO&lt;/font&gt;" style="text;html=1;strokeColor=none;fillColor=none;align=center;verticalAlign=middle;whiteSpace=wrap;rounded=0;" vertex="1" parent="WIyWlLk6GJQsqaUBKTNV-1">
          <mxGeometry x="550" y="870" width="60" height="30" as="geometry" />
        </mxCell>
        <mxCell id="KdF7l_LlImrHwwRQQBVm-17" value="&lt;font color=&quot;#ff0000&quot;&gt;NO&lt;/font&gt;" style="text;html=1;strokeColor=none;fillColor=none;align=center;verticalAlign=middle;whiteSpace=wrap;rounded=0;" vertex="1" parent="WIyWlLk6GJQsqaUBKTNV-1">
          <mxGeometry x="441.5" y="925" width="60" height="30" as="geometry" />
        </mxCell>
        <mxCell id="KdF7l_LlImrHwwRQQBVm-22" style="edgeStyle=orthogonalEdgeStyle;rounded=0;orthogonalLoop=1;jettySize=auto;html=1;entryX=0.5;entryY=0;entryDx=0;entryDy=0;" edge="1" parent="WIyWlLk6GJQsqaUBKTNV-1" source="KdF7l_LlImrHwwRQQBVm-19" target="KdF7l_LlImrHwwRQQBVm-21">
          <mxGeometry relative="1" as="geometry" />
        </mxCell>
        <mxCell id="KdF7l_LlImrHwwRQQBVm-19" value="SYSTEM READ BATTERY ON" style="rounded=0;whiteSpace=wrap;html=1;" vertex="1" parent="WIyWlLk6GJQsqaUBKTNV-1">
          <mxGeometry x="309" y="1085" width="150" height="40" as="geometry" />
        </mxCell>
        <mxCell id="KdF7l_LlImrHwwRQQBVm-24" style="edgeStyle=orthogonalEdgeStyle;rounded=0;orthogonalLoop=1;jettySize=auto;html=1;" edge="1" parent="WIyWlLk6GJQsqaUBKTNV-1" source="KdF7l_LlImrHwwRQQBVm-21" target="KdF7l_LlImrHwwRQQBVm-23">
          <mxGeometry relative="1" as="geometry" />
        </mxCell>
        <mxCell id="KdF7l_LlImrHwwRQQBVm-21" value="READ BATTERY LEVEL" style="rounded=0;whiteSpace=wrap;html=1;" vertex="1" parent="WIyWlLk6GJQsqaUBKTNV-1">
          <mxGeometry x="309" y="1145" width="150" height="40" as="geometry" />
        </mxCell>
        <mxCell id="KdF7l_LlImrHwwRQQBVm-23" value="SYSTEM READ BATTERY OFF" style="rounded=0;whiteSpace=wrap;html=1;" vertex="1" parent="WIyWlLk6GJQsqaUBKTNV-1">
          <mxGeometry x="309" y="1205" width="150" height="40" as="geometry" />
        </mxCell>
        <mxCell id="KdF7l_LlImrHwwRQQBVm-33" style="edgeStyle=orthogonalEdgeStyle;rounded=0;orthogonalLoop=1;jettySize=auto;html=1;" edge="1" parent="WIyWlLk6GJQsqaUBKTNV-1" source="KdF7l_LlImrHwwRQQBVm-27" target="KdF7l_LlImrHwwRQQBVm-28">
          <mxGeometry relative="1" as="geometry" />
        </mxCell>
        <mxCell id="KdF7l_LlImrHwwRQQBVm-27" value="SHT21 AND ADX245 ON" style="rounded=0;whiteSpace=wrap;html=1;" vertex="1" parent="WIyWlLk6GJQsqaUBKTNV-1">
          <mxGeometry x="403.25" y="240" width="132.5" height="40" as="geometry" />
        </mxCell>
        <mxCell id="KdF7l_LlImrHwwRQQBVm-34" style="edgeStyle=orthogonalEdgeStyle;rounded=0;orthogonalLoop=1;jettySize=auto;html=1;" edge="1" parent="WIyWlLk6GJQsqaUBKTNV-1" source="KdF7l_LlImrHwwRQQBVm-28" target="myWWar3E-hMSdHv3xqH_-35">
          <mxGeometry relative="1" as="geometry" />
        </mxCell>
        <mxCell id="KdF7l_LlImrHwwRQQBVm-28" value="ARRIVE ADX245 AND SHT21" style="rounded=0;whiteSpace=wrap;html=1;" vertex="1" parent="WIyWlLk6GJQsqaUBKTNV-1">
          <mxGeometry x="407.5" y="300" width="124" height="40" as="geometry" />
        </mxCell>
        <mxCell id="KdF7l_LlImrHwwRQQBVm-37" style="edgeStyle=orthogonalEdgeStyle;rounded=0;orthogonalLoop=1;jettySize=auto;html=1;entryX=0.5;entryY=0;entryDx=0;entryDy=0;" edge="1" parent="WIyWlLk6GJQsqaUBKTNV-1" source="KdF7l_LlImrHwwRQQBVm-35" target="myWWar3E-hMSdHv3xqH_-37">
          <mxGeometry relative="1" as="geometry" />
        </mxCell>
        <mxCell id="KdF7l_LlImrHwwRQQBVm-35" value="SENSOR LORA ON" style="rounded=0;whiteSpace=wrap;html=1;" vertex="1" parent="WIyWlLk6GJQsqaUBKTNV-1">
          <mxGeometry x="407.5" y="420" width="124" height="40" as="geometry" />
        </mxCell>
        <mxCell id="KdF7l_LlImrHwwRQQBVm-41" style="edgeStyle=orthogonalEdgeStyle;rounded=0;orthogonalLoop=1;jettySize=auto;html=1;entryX=0.5;entryY=0;entryDx=0;entryDy=0;" edge="1" parent="WIyWlLk6GJQsqaUBKTNV-1" source="KdF7l_LlImrHwwRQQBVm-39" target="myWWar3E-hMSdHv3xqH_-38">
          <mxGeometry relative="1" as="geometry" />
        </mxCell>
        <mxCell id="KdF7l_LlImrHwwRQQBVm-39" value="SENSOR LORA ON" style="rounded=0;whiteSpace=wrap;html=1;" vertex="1" parent="WIyWlLk6GJQsqaUBKTNV-1">
          <mxGeometry x="407.5" y="540" width="124" height="40" as="geometry" />
        </mxCell>
      </root>
    </mxGraphModel>
  </diagram>
</mxfile>
